<svg xmlns="http://www.w3.org/2000/svg" viewBox="0 0 131.66 68.19"><defs><style>.cls-1,.cls-3{fill:#606060;}.cls-1,.cls-2{fill-rule:evenodd;}.cls-2,.cls-4{fill:#bd8f59;}</style></defs><title>logo</title><g id="Layer_2" data-name="Layer 2"><g id="Calque_1" data-name="Calque 1"><path class="cls-1" d="M2.83,57.2l0-11.32A5.71,5.71,0,0,0,2.26,43a1.82,1.82,0,0,0-1.69-.92C.19,42.12,0,42,0,41.8s.18-.34.56-.34l.71,0,1.15,0q1,0,1.59,0l1.56-.11c.49,0,1,0,1.39,0a8,8,0,0,1,4.84,1.28,4.15,4.15,0,0,1,1.78,3.54,4.2,4.2,0,0,1-1.83,3.63l-.6.44c-.14.09-.21.16-.2.22s.26.2.73.31A4.21,4.21,0,0,1,14.2,52.5a5.29,5.29,0,0,1,1,3.19,5.79,5.79,0,0,1-1.89,4.46,6.76,6.76,0,0,1-4.78,1.76l-1.08,0-1.29-.06L5,61.74c-.74-.05-1.33-.07-1.77-.07a8.61,8.61,0,0,0-1.11.06,8.45,8.45,0,0,1-.95.09c-.26,0-.39-.1-.39-.32s.14-.27.42-.31a1.55,1.55,0,0,0,1.4-1.38A13.7,13.7,0,0,0,2.83,57.2Zm3.06-6.88h2.3c2.33,0,3.5-1.11,3.49-3.32a4.52,4.52,0,0,0-1.49-3.43,5.24,5.24,0,0,0-3.68-1.38,1.94,1.94,0,0,0-1.27.29,1.63,1.63,0,0,0-.31,1.19l0,5.88a.94.94,0,0,0,.15.65A1.58,1.58,0,0,0,5.89,50.32Zm-.17,1a1.22,1.22,0,0,0-.64.1c-.09.06-.13.21-.13.46l0,6.77,0,.67.09.58a1.41,1.41,0,0,0,1,.9,8.77,8.77,0,0,0,2.52.26A4.59,4.59,0,0,0,12,59.89a4.58,4.58,0,0,0,1.2-3.39,5.28,5.28,0,0,0-1.34-3.69,4.32,4.32,0,0,0-3.35-1.46Z"/><path class="cls-1" d="M25.18,59.78A4.73,4.73,0,0,1,21.26,62a3.79,3.79,0,0,1-3.05-1.25,5.33,5.33,0,0,1-1.1-3.55V51.36a1.49,1.49,0,0,0-.29-1A1.73,1.73,0,0,0,15.73,50c-.23,0-.34-.12-.33-.31s.29-.28.86-.31l1.06,0a6.63,6.63,0,0,0,1-.2,1.17,1.17,0,0,1,.31-.06c.25,0,.38.23.38.69V50l0,6.55V57l.22,1.77a3.09,3.09,0,0,0,1.09,1.55,2.71,2.71,0,0,0,1.73.61,3.39,3.39,0,0,0,2.17-.75,2.19,2.19,0,0,0,1-1.73v-7a1.76,1.76,0,0,0-.29-1.14,1.3,1.3,0,0,0-1-.31c-.3,0-.44-.09-.45-.27s.17-.35.51-.36l.45,0,1,0A4.33,4.33,0,0,0,26.46,49a1.79,1.79,0,0,1,.33-.07c.19,0,.29.16.29.52l0,9.53a3.27,3.27,0,0,0,.22,1.5,1.08,1.08,0,0,0,1,.35h.41q.31,0,.33.21t-.81.36l-.88.06a6.85,6.85,0,0,0-1.17.12,2.1,2.1,0,0,1-.51.09c-.3,0-.45-.46-.45-1.37Z"/><path class="cls-1" d="M33.42,41.62l0,16.55A5,5,0,0,0,33.73,60c.2.49.78.82,1.73,1,.26,0,.39.15.4.31a.27.27,0,0,1-.29.34,1.64,1.64,0,0,1-.36-.06,3.34,3.34,0,0,0-.63,0H32.65c-.89,0-1.43,0-1.63,0l-.53.08c-.24,0-.37-.1-.38-.3s.12-.29.39-.36a1.51,1.51,0,0,0,.84-.51,1.88,1.88,0,0,0,.22-1l0-15.62c0-.9-.3-1.35-.89-1.35l-.7,0a.75.75,0,0,1-.23,0,.22.22,0,0,1-.17-.23c0-.14.12-.24.36-.31a6.2,6.2,0,0,0,.86-.28l.85-.37a6.58,6.58,0,0,0,1.35-.7.5.5,0,0,1,.28-.12c.14,0,.21.2.21.64Z"/><path class="cls-1" d="M40.38,41.6l0,16.56A5,5,0,0,0,40.69,60c.2.48.78.81,1.73,1,.26,0,.39.14.4.3s-.09.34-.29.34a1.64,1.64,0,0,1-.36-.06,4.49,4.49,0,0,0-.63,0l-1.21,0H39.6c-.88,0-1.42,0-1.62,0a3.8,3.8,0,0,1-.53.08c-.24,0-.37-.1-.38-.29s.12-.29.39-.37a1.44,1.44,0,0,0,.83-.5,1.86,1.86,0,0,0,.22-1l0-15.61c0-.91-.3-1.35-.9-1.35l-.69,0a.88.88,0,0,1-.24,0,.24.24,0,0,1-.16-.23c0-.14.12-.25.36-.31a7.9,7.9,0,0,0,.86-.28l.85-.37a6.5,6.5,0,0,0,1.35-.71.5.5,0,0,1,.28-.12c.14,0,.21.21.21.65Z"/><path class="cls-1" d="M47.68,49.23a5.45,5.45,0,0,1,1.9.3l.61.22c.25.1.37.25.37.45v.24c0,.14,0,.27,0,.41l.06.57a3.87,3.87,0,0,1,0,.56c0,.38-.1.58-.3.58s-.21-.11-.31-.37A2.88,2.88,0,0,0,47.21,50a2,2,0,0,0-1.38.5,1.7,1.7,0,0,0-.53,1.27,1.66,1.66,0,0,0,.58,1.3,9,9,0,0,0,2.33,1.21,6.36,6.36,0,0,1,2.41,1.52,3.19,3.19,0,0,1,.68,2.14,3.88,3.88,0,0,1-1.16,2.85,3.8,3.8,0,0,1-2.77,1.18,5.6,5.6,0,0,1-2.51-.69,1.3,1.3,0,0,0-.4-.16l-.36,0a.35.35,0,0,1-.35-.37l0-.63,0-1.87,0-.44c0-.27.14-.4.31-.41s.28.13.33.43a4.92,4.92,0,0,0,1.14,2.52,2.67,2.67,0,0,0,2,.91,2.24,2.24,0,0,0,1.66-.64,2.15,2.15,0,0,0,.65-1.61,2.37,2.37,0,0,0-1.56-2.23L47,56.14a6.86,6.86,0,0,1-2.37-1.57,2.93,2.93,0,0,1-.7-2A3.06,3.06,0,0,1,45,50.2,3.85,3.85,0,0,1,47.68,49.23Z"/><path class="cls-1" d="M83.35,57.49V58a4.21,4.21,0,0,0,.28,2.07c.19.21.82.31,1.87.32a11.4,11.4,0,0,0,4-.64A3.6,3.6,0,0,0,91.73,58c.12-.27.23-.4.35-.39s.19.09.19.29a4.4,4.4,0,0,1-.82,2.11A3.84,3.84,0,0,1,88,61.63c-.26,0-.57,0-.92,0l-1.34-.12c-.79-.07-1.62-.11-2.5-.11a16.55,16.55,0,0,0-2.56.17,6.7,6.7,0,0,1-.7.09c-.21,0-.31-.08-.31-.26s.11-.27.34-.35a1.91,1.91,0,0,0,1.14-.89,4.79,4.79,0,0,0,.3-2l0-.67v-13c0-1.3-.44-2-1.33-2.27L79.57,42c-.2-.05-.3-.14-.3-.29s.14-.33.42-.33a7.19,7.19,0,0,1,.79.06c.56.05,1.19.08,1.9.09s1.45,0,2.08-.07l.53,0c.2,0,.3.07.3.22a.42.42,0,0,1-.36.42l-.44.11c-.75.22-1.12,1.09-1.12,2.61Z"/><path class="cls-1" d="M94.71,43.22c.22,0,.45.19.68.58l.33.56a.64.64,0,0,1,.14.37,1.68,1.68,0,0,1-.47.94q-.49.6-.78.6c-.19,0-.43-.2-.74-.59a1.71,1.71,0,0,1-.46-.92,1.75,1.75,0,0,1,.5-.94C94.26,43.42,94.52,43.22,94.71,43.22Zm.84,15.94a3.08,3.08,0,0,0,.21,1.39,1.19,1.19,0,0,0,.92.45l.64.08c.33.05.49.18.49.38s-.14.25-.38.25-.46,0-.91-.06c-.25,0-.57,0-1,0l-.89,0-1,.06-.43,0a4.44,4.44,0,0,1-.5,0c-.25,0-.38-.08-.38-.26a.32.32,0,0,1,.25-.31l.27-.08a1,1,0,0,0,.61-.56,3.28,3.28,0,0,0,.18-1.27v-6.4a3.54,3.54,0,0,0-.22-1.58c-.15-.25-.47-.37-1-.37s-.52-.08-.51-.23.24-.29.71-.44a14.93,14.93,0,0,0,2-.94l.73-.36c.13,0,.19.12.19.35Z"/><path class="cls-1" d="M113.27,51.58c1.19-1.55,2.43-2.33,3.7-2.33a3.87,3.87,0,0,1,3.38,1.93,7.53,7.53,0,0,1,.84,4v3.5l0,.44,0,.71A1.25,1.25,0,0,0,122.33,61l.56.09c.24,0,.36.13.37.29s-.14.32-.44.32a4.69,4.69,0,0,1-.52,0,14.2,14.2,0,0,0-1.62-.06l-1.32,0h-.51l-.39,0-.18,0a.27.27,0,0,1-.1-.22.3.3,0,0,1,.25-.28l.39-.11c.36-.1.54-.45.54-1.06V54.87a5,5,0,0,0-.85-3.13,2.87,2.87,0,0,0-2.43-1.12,3,3,0,0,0-2,.71,2.12,2.12,0,0,0-.86,1.64v6.76c0,.82.66,1.27,1.85,1.35.3,0,.44.14.44.31s-.1.27-.3.27a4.83,4.83,0,0,1-.69-.08c-.16,0-.58,0-1.25,0-1.41,0-2.25,0-2.53.06l-.53,0q-.26,0-.24-.24c0-.11.09-.2.25-.28a1.69,1.69,0,0,0,.91-.64,2.37,2.37,0,0,0,.24-1.23V52.63a2.93,2.93,0,0,0-.23-1.4.89.89,0,0,0-.85-.39l-.57,0a.37.37,0,0,1-.21-.06.21.21,0,0,1-.12-.21c0-.13.11-.23.34-.27a6.31,6.31,0,0,0,1.72-.61l.71-.37.52-.28a.64.64,0,0,1,.32-.12c.16,0,.23.14.21.43s0,.34,0,.55Z"/><path class="cls-1" d="M128.06,49a5.34,5.34,0,0,1,1.89.31l.62.22a.49.49,0,0,1,.37.46v.23a2.73,2.73,0,0,0,0,.41l.05.58a2.74,2.74,0,0,1,0,.55c0,.38-.1.58-.3.59s-.22-.12-.31-.38a2.89,2.89,0,0,0-2.87-2.24,2,2,0,0,0-1.37.5,1.63,1.63,0,0,0-.54,1.26,1.67,1.67,0,0,0,.57,1.31A9.44,9.44,0,0,0,128.57,54,6.24,6.24,0,0,1,131,55.54a3.18,3.18,0,0,1,.68,2.14,4,4,0,0,1-1.18,2.84,3.76,3.76,0,0,1-2.77,1.17A5.54,5.54,0,0,1,125.2,61a1.46,1.46,0,0,0-.4-.17l-.37,0a.35.35,0,0,1-.34-.37l0-.63,0-1.87,0-.44c0-.27.14-.41.31-.42s.28.14.33.44A5,5,0,0,0,125.83,60a2.66,2.66,0,0,0,2,.91,2.27,2.27,0,0,0,1.66-.63,2.12,2.12,0,0,0,.66-1.61,2.37,2.37,0,0,0-1.56-2.23l-1.22-.57A6.86,6.86,0,0,1,125,54.32a3,3,0,0,1-.69-2A3,3,0,0,1,125.41,50,3.8,3.8,0,0,1,128.06,49Z"/><path class="cls-2" d="M86.56,20.86a1.4,1.4,0,0,1,.88-.22,1.28,1.28,0,0,1,1.17.75.55.55,0,0,0,.49.37.54.54,0,0,0,.56-.51.6.6,0,0,0,0-.22,1.7,1.7,0,0,0-3.06-.17Z"/><path class="cls-2" d="M90.61,18.6l-.24-.08a3.31,3.31,0,0,1,.93,4.08,4,4,0,0,1-.87,1.28,1.93,1.93,0,0,0-.6,1.57,2,2,0,0,0,.15.6,0,0,0,0,0,0,0s0,0,0-.07,0-.09,0-.14a1.39,1.39,0,0,1,.6-1.23A4,4,0,0,0,91.91,23C92.68,21.21,92.09,19.24,90.61,18.6Z"/><path class="cls-2" d="M77,15c.56,0,2.05.09,4.21,1.84A4.22,4.22,0,0,0,85.57,18a13,13,0,0,1,3.19-.55h0s.08,0,.08,0-.06-.05-.14-.05h0a11.9,11.9,0,0,0-3.18.41,4.33,4.33,0,0,1-4.07-1.31,3.94,3.94,0,0,0,2-2.82,3.68,3.68,0,0,0,.07-.73.09.09,0,0,0-.1-.09.08.08,0,0,0-.09.06,4,4,0,0,1-3.32,2.47,4.17,4.17,0,0,0-3.14-.81.65.65,0,0,1,.07.34A.5.5,0,0,1,77,15Z"/><path class="cls-2" d="M75.11,20a8.85,8.85,0,0,0,3-1.35,27.82,27.82,0,0,0,7.81.94h0c.08,0,.14,0,.14-.08s-.06-.07-.14-.07c-.37,0-5.23-.3-8.15-1.91a8.45,8.45,0,0,1-4.58,2.79h0a16.84,16.84,0,0,0,3.57.93h0c.08,0,.15,0,.16,0s0-.08-.11-.1-.52-.17-1.11-.41a16.46,16.46,0,0,0,3-1h0c.08,0,.13-.09.11-.13s-.07,0-.14,0a31.72,31.72,0,0,1-3.62.6h0a.08.08,0,0,1-.07-.09A.08.08,0,0,1,75.11,20Z"/><path class="cls-2" d="M69.41,8.84a2.91,2.91,0,0,1,.16-1.1s0,0,0,0,0-.09-.09-.1a.1.1,0,0,0-.09.06,3.54,3.54,0,0,0-.52,2,4.73,4.73,0,0,0,4.06,4.2,2.69,2.69,0,0,1,2.43,2.47,1.93,1.93,0,0,1-.36,1,2.47,2.47,0,0,0,1.14-1.91,3,3,0,0,0-2.67-2.84C71.25,12.23,69.49,10.65,69.41,8.84Z"/><path class="cls-2" d="M64.77,17.66h0l4-1.37a7.15,7.15,0,0,0,3.1,1,5.77,5.77,0,0,0,1.1,0v0a7.73,7.73,0,0,1-6.1-5.59v0c-.34-1.49.31-3.59,1.76-5.43a9.26,9.26,0,0,1,2.09-1.94.07.07,0,0,0,0-.06.08.08,0,0,0-.08-.09h0a8.46,8.46,0,0,0-3.6,2.7c-1.56,2-2.08,4.23-1.46,5.77a7.36,7.36,0,0,0,2.09,2.92l-3,2a.09.09,0,0,0,0,.07A.07.07,0,0,0,64.77,17.66Z"/><path class="cls-2" d="M89.56,28.77a3.36,3.36,0,0,1-2.65-.65l-.06,0-9.33,1.36a.26.26,0,0,0-.16.09,5.28,5.28,0,0,1-8.4.22.18.18,0,0,0-.16-.08.18.18,0,0,0-.17.18.24.24,0,0,0,0,.09,5.77,5.77,0,0,0,1.95,1.92,89,89,0,0,0-13,5.92c-7.82-4.21-13-5.56-14.28-5.82-8.92-1.77-10.31-9-10.31-9s-.25-.29-.13.21a18.22,18.22,0,0,0,3.64,6.47c3.46,3.42,5.72,2.21,12.59,5a114.76,114.76,0,0,1,18.06,9.58c4.8,2.45,7.65,2.09,8,2.06a4.57,4.57,0,0,1,3.66,1.17c-1-2-4.5-1.85-5-1.89C69,45,63,40.89,62.31,40.49s-1.47-.88-2.18-1.29a65.9,65.9,0,0,1,9.39-5.53h0a0,0,0,0,0,0,0l0,0c.76-.37,1.56-.75,2.39-1.12a5.76,5.76,0,0,0,6.24-2.14l8.15-1.86a3.71,3.71,0,0,0,3.22.49s0,0,.05,0a.12.12,0,0,0-.12-.19Z"/><path class="cls-2" d="M59.16,29.22c.05.06.12.09.15.06s0-.09,0-.15c-.2-.31-3.12-3.95-3.53-7.26a8.37,8.37,0,0,1-5-2.07h0v0a16.25,16.25,0,0,0,1.35,3.43s0,0,0,0,.09.12.13.1,0-.08,0-.15-.16-.51-.33-1.14a15.77,15.77,0,0,0,2.54,1.82l0,0c.07,0,.14,0,.16,0s0-.09-.06-.13A31.38,31.38,0,0,1,52,21.25l0,0a.1.1,0,0,1,0-.12.09.09,0,0,1,.11,0A8.71,8.71,0,0,0,55,22.77a18.39,18.39,0,0,0,4.11,6.42Z"/><path class="cls-2" d="M52,32.28a2.33,2.33,0,0,0,2.28,2.37,2.56,2.56,0,0,0,1.57-.44.08.08,0,0,0,0-.05.05.05,0,0,0-.05-.06h-.32a1.62,1.62,0,0,1-1.65-1.58,1.53,1.53,0,0,1,1.12-1.31.06.06,0,0,0,.05-.06.06.06,0,0,0,0-.05,3.54,3.54,0,0,1-.48-1.73.09.09,0,0,0-.08-.09,8.54,8.54,0,0,1-4.2-3.12,9.75,9.75,0,0,1-1.58-2.89,9.68,9.68,0,0,0-1.53-3.14.17.17,0,0,0-.31.06.16.16,0,0,0,0,.1,8.66,8.66,0,0,1,1.76,4.11v0q0,.24.06.39a9.19,9.19,0,0,0,1.83,3.87,10.76,10.76,0,0,0,2.4,2A2,2,0,0,0,52,32.28Z"/><path class="cls-2" d="M57.71,33.38a.25.25,0,0,0,.27,0,18.52,18.52,0,0,0,4.94-3.21.37.37,0,0,1,.12-.07,1,1,0,0,0,.63-.87,1,1,0,0,0-.09-.48,22.1,22.1,0,0,0-1.72-3.32c-.25-.4-.51-.77-.76-1.15a2.18,2.18,0,0,1-.31-1.28,1.74,1.74,0,0,1,.05-.39v0a14.72,14.72,0,0,0,.46-2.93,12.65,12.65,0,0,0-.84-5.51.11.11,0,0,0-.1-.07.12.12,0,0,0-.11.1.06.06,0,0,0,0,0,13.75,13.75,0,0,1,.5,4.64,14.85,14.85,0,0,1-.61,3.49,2.32,2.32,0,0,0,.31,2l0,.05a22.24,22.24,0,0,1,1.34,1.95c.59.93,1,1.63,1.4,2.32a1.13,1.13,0,0,1,.09.45,1,1,0,0,1-.39.71.19.19,0,0,1-.11.05A4.49,4.49,0,0,1,61,30l-.09,0a.33.33,0,0,0-.15,0,3.54,3.54,0,0,0-2,1.39.64.64,0,0,0,0,.07s0,0,0,0a.27.27,0,0,0,.21.27,1.44,1.44,0,0,0,.64,0h0a.15.15,0,0,1,.13.15.3.3,0,0,1,0,.08A9.37,9.37,0,0,1,57.71,33.38Z"/><path class="cls-2" d="M53.71,13s0,0,0,.05a5.77,5.77,0,0,1-4.44,3.49,5.79,5.79,0,0,0,4.37-1.87,6.22,6.22,0,0,1,4.75-2,4.38,4.38,0,0,1,4.13,4.6,4.75,4.75,0,0,1-.15.93,5.78,5.78,0,0,0-.06,4.08,5.8,5.8,0,0,1,1-4.3l0-.05.08-.11a5.58,5.58,0,0,0,1.07-2.66,5.16,5.16,0,0,0-4.93-5.72A5.91,5.91,0,0,0,53.71,13Z"/><path class="cls-2" d="M50.34,13.24a3.66,3.66,0,0,1-.69,2.86h0A4.5,4.5,0,0,0,52,13.47c.92-2.7,3.72-8.16,11-4.2,0,0-5.17-6.84-10.52-2.29A7.65,7.65,0,0,0,50.34,13.24Z"/><path class="cls-2" d="M45.23,31.83c.36.12.48-.19.12-.41,0,0-8.85-5.26-4-10.58a9.7,9.7,0,0,1,3.31-2.26,5.78,5.78,0,0,0,4.56-5.23v-.44S49.18,15.14,43,16.2c-2.06.35-10,3-5.22,10.29A15.74,15.74,0,0,0,45.23,31.83Z"/><path class="cls-2" d="M51.42,34.23s.47-1.34-2.29-4.09a8.41,8.41,0,0,0-1.77-1.45c-1.39-.87-3.29-1.86-4.18-4.54a5.06,5.06,0,0,1,.28-3.24c.14-.3.06-.19.06-.19A5.52,5.52,0,0,0,43.8,29C45.33,30.45,49.43,31.53,51.42,34.23Z"/><path class="cls-2" d="M40.08,16.09c5.74-1.52,5.08-2.3,5.08-2.3a1.57,1.57,0,0,1-.25.1c-3.68,1.43-6-.59-8.48.86-8.16,4.76,2.43,14.43,2.43,14.43C30.84,19.09,39.28,16.3,40.08,16.09Z"/><path class="cls-2" d="M38.05,12.56a14.22,14.22,0,0,1,3.52.62c3.38.85,4.1-.37,4.1-.37s-.4.45-2.83-.68A12.67,12.67,0,0,0,38.7,10.9c-3-.1-7.12,1.28-6.2,9.5,0,.22.15.8.14.13C32.56,14,35.79,12.69,38.05,12.56Z"/><path class="cls-2" d="M49.31,9a5.16,5.16,0,0,1,.24,2.49.65.65,0,0,1,0,.1,4.4,4.4,0,0,0,.57-1.54,5.64,5.64,0,0,0,.13-1.65A2.59,2.59,0,0,1,51,6.23c1.15-1.16,4-2.69,2.3-6.23a4,4,0,0,1-2.6,4.43C50.33,4.55,48.11,5.39,49.31,9Z"/><path class="cls-2" d="M46.39,5.54a3.7,3.7,0,0,0,.33,2.56c.7,1.6,1.78,4.66-1.26,6.48a3.84,3.84,0,0,0,2.81-1.77,4.31,4.31,0,0,0,.53-3.65c-.27-.91-.68-1.94-.84-2.73a3.3,3.3,0,0,1,.64-2.82,17.28,17.28,0,0,1,1.63-1.34S47.06,3.23,46.39,5.54Z"/><path class="cls-2" d="M45.84,12.39c0,.3.14.2.14.2a3.86,3.86,0,0,0-.85-4c-.36-.43-3-4.22,2.58-6.53a5.52,5.52,0,0,0-4.78,2.79,3,3,0,0,0-.06,3C43.82,9.38,45.94,10.91,45.84,12.39Z"/><path class="cls-2" d="M42.87,11.39a9.5,9.5,0,0,1,2.15,1s0,0,0,0a.07.07,0,0,0,.08-.07.06.06,0,0,0,0-.07c-.86-.74-2-1.75-2.37-2a4,4,0,0,1-1.15-4,.08.08,0,0,0,0,0A.14.14,0,0,0,41.5,6a.12.12,0,0,0-.12.08,3.43,3.43,0,0,1-.64.68,2.47,2.47,0,0,0-1.23,1.89C39.43,10.54,41.47,11,42.87,11.39Z"/><path class="cls-1" d="M75.44,60.48a2,2,0,0,0-.43.11,1.34,1.34,0,0,1-.46.09c-1.11,0-2.87-1.08-5.3-3.22a9.47,9.47,0,0,0,1.08-3.82,5.29,5.29,0,0,1,.23-1.31.75.75,0,0,1,.22-.35,4.53,4.53,0,0,0,.88-.23,2.07,2.07,0,0,1,1.62,0l.15.07s.09,0,.1,0,0,0,0-.06a2.4,2.4,0,0,0-.58-.37,3,3,0,0,0-2-.18c-.12,0-.25.06-.38.09l-.12,0a6.21,6.21,0,0,1-1.31.07c-2-.12-3.72-1.19-4-2.48a2,2,0,0,0,0,.23,2.89,2.89,0,0,0,2,2.37l.21.11.57.27a1.8,1.8,0,0,1,1,.81,3.54,3.54,0,0,1,.38,1.71,5.12,5.12,0,0,1-.64,2.49q-2.2-2-3.4-3.29l-3.08-3.35a17.19,17.19,0,0,1-1.94-2.44,3.25,3.25,0,0,1-.58-1.67,1.74,1.74,0,0,1,.62-1.34,2.11,2.11,0,0,1,1.47-.55c.68,0,1.1-.72.5-.72a4.34,4.34,0,0,0-2.89.93A3.1,3.1,0,0,0,58.17,47a5,5,0,0,0,1.08,2.92,4.67,4.67,0,0,0-2.37,1.28,5.46,5.46,0,0,0-1.55,3.93,6.06,6.06,0,0,0,2,4.65,7.16,7.16,0,0,0,5,1.85,8.28,8.28,0,0,0,5.69-2.52,17,17,0,0,0,2.91,2,5.11,5.11,0,0,0,2.23.5,4.63,4.63,0,0,0,1.64-.31c.54-.2.81-.42.81-.63S75.58,60.46,75.44,60.48ZM63.11,60a6.17,6.17,0,0,1-5-2.36A5.63,5.63,0,0,1,56.73,54a4.11,4.11,0,0,1,.83-2.6,2.19,2.19,0,0,1,1.63-1q.53,0,1.29,1c.61.79,1.46,1.77,2.54,2.94s1.95,2,2.61,2.64l1.17,1,.51.47A5.93,5.93,0,0,1,63.11,60Z"/><path class="cls-2" d="M75.74,47.18a6.46,6.46,0,0,0-2.65.08A2.32,2.32,0,0,1,71.32,47l-.15-.1s-.1,0-.11,0a0,0,0,0,0,0,.06,2.88,2.88,0,0,0,.6.48,3.34,3.34,0,0,0,2.17.42,6.06,6.06,0,0,1,2,0c2.22.36,3.94,1.72,4.12,3.16a1.84,1.84,0,0,0,0-.25C80.18,49.23,78.27,47.59,75.74,47.18Z"/><path class="cls-2" d="M77,49.42a3.56,3.56,0,0,0-1.47-.25,1.16,1.16,0,0,1-.92-.33l-.06-.07s0,0-.06,0a0,0,0,0,0,0,0,1.32,1.32,0,0,0,.23.33,1.66,1.66,0,0,0,1.1.48,3.29,3.29,0,0,1,1.09.24,2.51,2.51,0,0,1,1.61,1.61.25.25,0,0,1,0,.12.4.4,0,0,1-.23.34h0a1.11,1.11,0,0,1-.3.08,1.17,1.17,0,0,1-1.2-.42.48.48,0,0,0-.5-.23.48.48,0,0,0-.4.56.62.62,0,0,0,.07.19,1.5,1.5,0,0,0,1.54.63,1.45,1.45,0,0,0,1.21-1.09C78.81,50.83,78.12,49.88,77,49.42Z"/><path class="cls-2" d="M57.64,13.2a3.64,3.64,0,0,0-2.21.8c-.07.06,0,.16.1.09h0s2.22-1,3.16.88A2.75,2.75,0,0,1,59,16.06,2.29,2.29,0,0,0,60,17.81l.12.06s-.6-.36-.25-1.89A2.23,2.23,0,0,0,57.64,13.2Z"/><path class="cls-1" d="M108,51.14a5.73,5.73,0,0,0-2.88-1.7A2.66,2.66,0,0,1,106,51a5.45,5.45,0,0,1,.6.72,8.09,8.09,0,0,1,1.24,4.71,5.89,5.89,0,0,1-1,3.62,3.2,3.2,0,0,1-2.72,1.33,4,4,0,0,1-3.31-1.88,8,8,0,0,1-1.32-4.7,5.59,5.59,0,0,1,1.06-3.54h0a3.69,3.69,0,0,1,1.23-1h0l.15-.07h0a3.64,3.64,0,0,1,1.38-.25h.23a3.68,3.68,0,0,1,.9.18c.05,0,.6.17.52.65v0a2.49,2.49,0,0,1-.14.44,1.76,1.76,0,0,1-1.52,1.12.73.73,0,0,0-.7.43.72.72,0,0,0,.66,1,2.17,2.17,0,0,0,2-1.36A2.15,2.15,0,0,0,105,50c-.76-.78-2.34-.87-3.78-.18a6.66,6.66,0,0,0-2,10.41A5.79,5.79,0,0,0,103.56,62,6,6,0,0,0,108,60.16a6.34,6.34,0,0,0,1.77-4.61A6.06,6.06,0,0,0,108,51.14Z"/><polygon class="cls-3" points="37.32 66.55 36.45 65.47 36.09 65.47 36.09 68.1 36.46 68.11 36.47 66.05 37.28 67.07 37.35 67.07 38.17 66.06 38.16 68.11 38.54 68.11 38.55 65.47 38.2 65.47 37.32 66.55"/><path class="cls-3" d="M40.69,65.44a1.41,1.41,0,0,0-1,.38,1.3,1.3,0,0,0-.4,1,1.27,1.27,0,0,0,.39,1,1.41,1.41,0,0,0,1,.38,1.48,1.48,0,0,0,1-.38,1.35,1.35,0,0,0,0-1.94A1.41,1.41,0,0,0,40.69,65.44Zm.74,2.07a1,1,0,0,1-.74.28,1,1,0,0,1-.73-.28.94.94,0,0,1-.29-.71.91.91,0,0,1,.29-.72,1.1,1.1,0,0,1,1.47,0,1,1,0,0,1,.29.71A1,1,0,0,1,41.43,67.51Z"/><path class="cls-3" d="M44.54,67.59a5.64,5.64,0,0,0-.34-.5,1.31,1.31,0,0,0-.25-.23.7.7,0,0,0,.33-.25.68.68,0,0,0,.12-.4.65.65,0,0,0-.24-.53.92.92,0,0,0-.63-.2h-.66v2.63h.38V67h.1a.54.54,0,0,1,.26.05.68.68,0,0,1,.18.14,2.32,2.32,0,0,1,.21.26l.13.2.11.19.08.11,0,0,.12.18h.44l-.13-.19C44.7,67.85,44.63,67.74,44.54,67.59Zm-.76-1a1.13,1.13,0,0,1-.4,0h-.14V65.8h.12a1.24,1.24,0,0,1,.39,0,.4.4,0,0,1,.19.14.46.46,0,0,1,.06.23.4.4,0,0,1-.06.22A.33.33,0,0,1,43.78,66.58Z"/><path class="cls-3" d="M46.76,65.45a1.34,1.34,0,0,0-1,.38,1.29,1.29,0,0,0-.4,1,1.28,1.28,0,0,0,.4,1,1.37,1.37,0,0,0,1,.38,1.45,1.45,0,0,0,1-.38,1.29,1.29,0,0,0,.42-1,1.31,1.31,0,0,0-.41-1A1.4,1.4,0,0,0,46.76,65.45Zm.74,2.06a1,1,0,0,1-.74.29,1,1,0,0,1-.73-.28,1,1,0,0,1-.29-.71,1,1,0,0,1,.29-.73,1.09,1.09,0,0,1,.75-.28,1,1,0,0,1,.72.29.94.94,0,0,1,.3.7A1,1,0,0,1,47.5,67.51Z"/><path class="cls-3" d="M50.26,67.81a1.09,1.09,0,0,1-.75-.28.94.94,0,0,1-.29-.72,1,1,0,0,1,.29-.71,1.09,1.09,0,0,1,.76-.29,1.79,1.79,0,0,1,.9.27v-.41a2.45,2.45,0,0,0-.92-.22,1.37,1.37,0,0,0-1,.4,1.23,1.23,0,0,0-.41,1,1.25,1.25,0,0,0,.17.68,1.33,1.33,0,0,0,.49.48,1.46,1.46,0,0,0,.75.18,2,2,0,0,0,1-.22v-.42A1.71,1.71,0,0,1,50.26,67.81Z"/><path class="cls-3" d="M52.52,67.53a1,1,0,0,1,0-1.43,1,1,0,0,1,.75-.28,1.78,1.78,0,0,1,.91.26v-.4a2.31,2.31,0,0,0-.92-.22,1.39,1.39,0,0,0-1,.39,1.26,1.26,0,0,0-.42,1,1.32,1.32,0,0,0,.18.67,1.28,1.28,0,0,0,.49.49,1.42,1.42,0,0,0,.74.18,2,2,0,0,0,1-.23v-.41a1.72,1.72,0,0,1-.93.29A1.05,1.05,0,0,1,52.52,67.53Z"/><path class="cls-3" d="M55.8,65.48l-1.13,2.65h.38l.34-.78h1.12l.35.78h.38l-1.17-2.65ZM55.53,67l.4-1,.42,1Z"/><polygon class="cls-3" points="59.91 67.55 58.13 65.5 57.83 65.5 57.82 68.13 58.18 68.14 58.18 66.11 59.94 68.14 60.27 68.14 60.27 65.5 59.91 65.5 59.91 67.55"/><path class="cls-3" d="M63.05,67.55a1,1,0,0,1-.3-.72.93.93,0,0,1,.3-.71,1.06,1.06,0,0,1,.76-.29,1.79,1.79,0,0,1,.9.27v-.41a2.31,2.31,0,0,0-.92-.22,1.44,1.44,0,0,0-1,.39,1.32,1.32,0,0,0-.41,1,1.36,1.36,0,0,0,.18.68A1.33,1.33,0,0,0,63,68a1.44,1.44,0,0,0,.75.18,2,2,0,0,0,1-.22v-.42a1.71,1.71,0,0,1-.94.3A1.05,1.05,0,0,1,63.05,67.55Z"/><path class="cls-3" d="M67.16,67.62a4,4,0,0,0-.34-.5,1.28,1.28,0,0,0-.24-.23.64.64,0,0,0,.33-.25.71.71,0,0,0,.11-.39.65.65,0,0,0-.23-.54,1,1,0,0,0-.63-.2H65.5v2.64h.38V67H66a.56.56,0,0,1,.26,0l.18.14a2.32,2.32,0,0,1,.21.26l.13.21.11.19.08.1s0,0,0,0l.11.18h.45L67.38,68Zm-.75-1a1,1,0,0,1-.4,0h-.14v-.83H66a1.68,1.68,0,0,1,.4,0,.38.38,0,0,1,.25.37.44.44,0,0,1-.06.23A.36.36,0,0,1,66.41,66.61Z"/><polygon class="cls-3" points="68.47 66.99 69.55 66.99 69.55 66.66 68.47 66.65 68.47 65.85 69.59 65.85 69.59 65.51 68.09 65.51 68.09 68.14 69.62 68.15 69.62 67.81 68.47 67.81 68.47 66.99"/><path class="cls-3" d="M71.15,65.5,70,68.15h.39l.33-.78h1.12l.36.79h.38L71.41,65.5ZM70.88,67l.4-1,.42,1Z"/><polygon class="cls-3" points="72.94 65.85 73.84 65.85 73.84 68.16 74.22 68.16 74.22 65.85 75.14 65.86 75.14 65.52 72.94 65.52 72.94 65.85"/><polygon class="cls-3" points="75.78 68.16 76.16 68.16 76.16 65.52 75.78 65.52 75.78 68.16"/><polygon class="cls-3" points="77.9 67.38 77.11 65.53 76.73 65.53 77.87 68.17 77.95 68.17 79.07 65.53 78.69 65.53 77.9 67.38"/><polygon class="cls-3" points="80.01 67 81.09 67.01 81.09 66.67 80.01 66.67 80.02 65.87 81.13 65.87 81.13 65.53 79.64 65.53 79.63 68.16 81.17 68.17 81.17 67.83 80.01 67.83 80.01 67"/><polygon class="cls-3" points="82.98 65.87 83.88 65.87 83.88 68.17 84.26 68.17 84.26 65.87 85.18 65.87 85.18 65.53 82.98 65.53 82.98 65.87"/><polygon class="cls-3" points="86.19 67.02 87.27 67.02 87.27 66.68 86.19 66.68 86.19 65.87 87.31 65.88 87.31 65.54 85.82 65.54 85.81 68.17 87.34 68.17 87.34 67.83 86.19 67.83 86.19 67.02"/><path class="cls-3" d="M88.87,65.53l-1.13,2.65h.38l.33-.78h1.12l.35.78h.39l-1.17-2.65Zm-.27,1.53.4-1,.42,1Z"/><polygon class="cls-3" points="92.11 66.63 91.23 65.54 90.88 65.55 90.88 68.18 91.25 68.18 91.25 66.13 92.07 67.15 92.14 67.15 92.96 66.13 92.95 68.18 93.33 68.19 93.33 65.55 92.98 65.55 92.11 66.63"/><rect class="cls-4" x="95.24" y="66.71" width="36.41" height="0.16"/><rect class="cls-4" x="0.57" y="66.71" width="33.63" height="0.16"/></g></g></svg>